<svg width="40" height="37" viewBox="0 0 40 37" fill="none" xmlns="http://www.w3.org/2000/svg">
<path d="M15.7233 26.5C15.6344 26.5 15.5011 26.4556 15.3233 26.3667L11.0567 22.7667C10.8789 22.5889 10.79 22.4111 10.79 22.2333C10.79 22.0556 10.8789 21.8778 11.0567 21.7L15.3233 18.1C15.5011 18.0111 15.6789 17.9667 15.8567 17.9667C16.0344 17.9667 16.1678 18.0333 16.2567 18.1667C16.3455 18.3 16.39 18.4556 16.39 18.6333C16.39 18.8111 16.3455 18.9445 16.2567 19.0333L12.5233 22.2333L16.2567 25.4333C16.3455 25.5222 16.39 25.6556 16.39 25.8333C16.39 26.0111 16.3455 26.1667 16.2567 26.3C16.1678 26.4333 15.99 26.5 15.7233 26.5ZM24.2567 26.5C23.99 26.5 23.8122 26.4333 23.7233 26.3C23.6344 26.1667 23.59 26.0111 23.59 25.8333C23.59 25.6556 23.6344 25.5222 23.7233 25.4333L27.4567 22.2333L23.7233 19.0333C23.6344 18.9445 23.59 18.8111 23.59 18.6333C23.59 18.4556 23.6344 18.3 23.7233 18.1667C23.8122 18.0333 23.9455 17.9667 24.1233 17.9667C24.3011 17.9667 24.4789 18.0111 24.6567 18.1L28.9233 21.7C29.1011 21.8778 29.19 22.0556 29.19 22.2333C29.19 22.4111 29.1011 22.5889 28.9233 22.7667L24.6567 26.3667C24.4789 26.4556 24.3455 26.5 24.2567 26.5ZM18.5233 29.3C18.4344 29.3 18.3455 29.2778 18.2567 29.2333C18.1678 29.1889 18.0567 29.1 17.9233 28.9667C17.79 28.8333 17.7678 28.6778 17.8567 28.5L20.5233 15.8333C20.5233 15.6556 20.6122 15.5222 20.79 15.4333C20.9678 15.3444 21.1455 15.3 21.3233 15.3C21.5011 15.3 21.6344 15.3889 21.7233 15.5667C21.8122 15.7444 21.8122 15.9222 21.7233 16.1L19.0567 28.7667C19.0567 29.1222 18.8789 29.3 18.5233 29.3ZM35.59 36.1H4.38999C3.23443 36.1 2.21221 35.6778 1.32332 34.8333C0.434435 33.9889 -0.0100098 32.9445 -0.0100098 31.7V5.3C-0.0100098 4.05556 0.434435 3.01112 1.32332 2.16667C2.21221 1.32223 3.23443 0.900005 4.38999 0.900005H35.59C36.7455 0.900005 37.7678 1.32223 38.6567 2.16667C39.5455 3.01112 39.99 4.05556 39.99 5.3V31.7C39.99 32.9445 39.5455 33.9889 38.6567 34.8333C37.7678 35.6778 36.7455 36.1 35.59 36.1ZM4.38999 2.23334C3.58999 2.23334 2.87888 2.52223 2.25666 3.10001C1.63443 3.67778 1.32332 4.41112 1.32332 5.3V31.7C1.32332 32.5889 1.63443 33.3222 2.25666 33.9C2.87888 34.4778 3.58999 34.7667 4.38999 34.7667H35.59C36.39 34.7667 37.1011 34.4778 37.7233 33.9C38.3455 33.3222 38.6567 32.5889 38.6567 31.7V5.3C38.6567 4.41112 38.3455 3.67778 37.7233 3.10001C37.1011 2.52223 36.39 2.23334 35.59 2.23334H4.38999ZM39.3233 11.4333H0.656657C0.478879 11.4333 0.323324 11.3667 0.18999 11.2333C0.0566569 11.1 -0.0100098 10.9444 -0.0100098 10.7667C-0.0100098 10.5889 0.0566569 10.4333 0.18999 10.3C0.323324 10.1667 0.478879 10.1 0.656657 10.1H39.3233C39.5011 10.1 39.6567 10.1667 39.79 10.3C39.9233 10.4333 39.99 10.5889 39.99 10.7667C39.99 10.9444 39.9233 11.1 39.79 11.2333C39.6567 11.3667 39.5011 11.4333 39.3233 11.4333ZM11.3233 8.23334C10.7011 8.23334 10.19 8.03334 9.78999 7.63334C9.38999 7.23334 9.18999 6.74445 9.18999 6.16667C9.18999 5.58889 9.38999 5.1 9.78999 4.7C10.19 4.3 10.6789 4.10001 11.2567 4.10001C11.8344 4.10001 12.3233 4.3 12.7233 4.7C13.1233 5.1 13.3233 5.58889 13.3233 6.16667C13.3233 6.74445 13.1233 7.23334 12.7233 7.63334C12.3233 8.03334 11.8567 8.23334 11.3233 8.23334ZM11.3233 5.43334C11.0567 5.43334 10.8567 5.5 10.7233 5.63334C10.59 5.76667 10.5233 5.94445 10.5233 6.16667C10.5233 6.38889 10.59 6.56667 10.7233 6.7C10.8567 6.83334 11.0344 6.90001 11.2567 6.90001C11.4789 6.90001 11.6567 6.83334 11.79 6.7C11.9233 6.56667 11.99 6.38889 11.99 6.16667C11.99 5.94445 11.9233 5.76667 11.79 5.63334C11.6567 5.5 11.5011 5.43334 11.3233 5.43334ZM4.78999 8.23334C4.25666 8.23334 3.78999 8.03334 3.38999 7.63334C2.98999 7.23334 2.78999 6.74445 2.78999 6.16667C2.78999 5.58889 2.98999 5.1 3.38999 4.7C3.78999 4.3 4.27888 4.10001 4.85666 4.10001C5.43443 4.10001 5.92332 4.3 6.32332 4.7C6.72332 5.1 6.92332 5.58889 6.92332 6.16667C6.92332 6.74445 6.72332 7.23334 6.32332 7.63334C5.92332 8.03334 5.41221 8.23334 4.78999 8.23334ZM4.78999 5.43334C4.61221 5.43334 4.45666 5.5 4.32332 5.63334C4.18999 5.76667 4.12332 5.94445 4.12332 6.16667C4.12332 6.38889 4.18999 6.56667 4.32332 6.7C4.45666 6.83334 4.63443 6.90001 4.85666 6.90001C5.07888 6.90001 5.25666 6.83334 5.38999 6.7C5.52332 6.56667 5.58999 6.38889 5.58999 6.16667C5.58999 5.94445 5.52332 5.76667 5.38999 5.63334C5.25666 5.5 5.05666 5.43334 4.78999 5.43334ZM17.7233 8.23334C17.1011 8.23334 16.59 8.03334 16.19 7.63334C15.79 7.23334 15.59 6.74445 15.59 6.16667C15.59 5.58889 15.79 5.1 16.19 4.7C16.59 4.3 17.0789 4.10001 17.6567 4.10001C18.2344 4.10001 18.7233 4.3 19.1233 4.7C19.5233 5.1 19.7233 5.58889 19.7233 6.16667C19.7233 6.74445 19.5233 7.23334 19.1233 7.63334C18.7233 8.03334 18.2567 8.23334 17.7233 8.23334ZM17.7233 5.43334C17.4567 5.43334 17.2567 5.5 17.1233 5.63334C16.99 5.76667 16.9233 5.94445 16.9233 6.16667C16.9233 6.38889 16.99 6.58889 17.1233 6.76667C17.2567 6.94445 17.4344 7.03334 17.6567 7.03334C17.8789 7.03334 18.0789 6.94445 18.2567 6.76667C18.4344 6.58889 18.5233 6.38889 18.5233 6.16667C18.5233 5.94445 18.4344 5.76667 18.2567 5.63334C18.0789 5.5 17.9011 5.43334 17.7233 5.43334Z" fill="white"/>
</svg>
