<svg width="40" height="35" viewBox="0 0 40 35" fill="none" xmlns="http://www.w3.org/2000/svg">
<path d="M37.6 0.299999H23.2C22.5778 0.299999 22.0222 0.522221 21.5333 0.966663C21.0444 1.41111 20.8 1.98889 20.8 2.7V11.3667L11.4667 13.9H2.66667C1.95556 13.9 1.33333 14.1667 0.8 14.7C0.266667 15.2333 0 15.8556 0 16.5667V22.1667C0 22.8778 0.266667 23.4778 0.8 23.9667C1.33333 24.4556 1.95556 24.7 2.66667 24.7H3.86667L4.8 32.4333C4.97778 33.4111 5.51111 34.0778 6.4 34.4333C6.84444 34.6111 7.33333 34.6778 7.86667 34.6333C8.4 34.5889 8.84445 34.4333 9.2 34.1667C10 33.5444 10.3111 32.7 10.1333 31.6333L9.2 24.7H11.4667L31.0667 30.3C31.3333 30.3 31.5778 30.2333 31.8 30.1C32.0222 29.9667 32.1333 29.7667 32.1333 29.5V14.4333H37.6C38.3111 14.4333 38.8889 14.1889 39.3333 13.7C39.7778 13.2111 40 12.6556 40 12.0333V2.7C40 1.98889 39.7778 1.41111 39.3333 0.966663C38.8889 0.522221 38.3111 0.299999 37.6 0.299999ZM1.6 22.1667V16.5667C1.6 16.3 1.68889 16.0556 1.86667 15.8333C2.04444 15.6111 2.31111 15.5 2.66667 15.5H10.8V23.2333H2.66667C2.31111 23.2333 2.04444 23.1222 1.86667 22.9C1.68889 22.6778 1.6 22.4333 1.6 22.1667ZM8.66667 31.9C8.66667 32.3444 8.51111 32.6778 8.2 32.9C7.88889 33.1222 7.51111 33.1667 7.06667 33.0333C6.62222 32.9 6.4 32.6111 6.4 32.1667L5.46667 24.7H7.73333L8.66667 31.9ZM30.5333 28.4333L12.4 23.3667V15.3667L21.0667 12.8333C21.2444 13.2778 21.5333 13.6556 21.9333 13.9667C22.3333 14.2778 22.7556 14.4333 23.2 14.4333H25.2L26.5333 15.7667C26.7111 15.8556 26.9111 15.9 27.1333 15.9C27.3556 15.9 27.5111 15.8556 27.6 15.7667L28.9333 14.4333H30.5333V28.4333ZM38.4 12.0333C38.4 12.2111 38.3333 12.3889 38.2 12.5667C38.0667 12.7444 37.8667 12.8333 37.6 12.8333H28.6667C28.4889 12.8333 28.3111 12.9222 28.1333 13.1L27.0667 14.0333L26.1333 13.1C25.9556 12.9222 25.7778 12.8333 25.6 12.8333H23.2C23.0222 12.8333 22.8444 12.7444 22.6667 12.5667C22.4889 12.3889 22.4 12.2111 22.4 12.0333V2.7C22.4 2.43333 22.4889 2.23333 22.6667 2.1C22.8444 1.96666 23.0222 1.9 23.2 1.9H37.6C37.8667 1.9 38.0667 1.96666 38.2 2.1C38.3333 2.23333 38.4 2.43333 38.4 2.7V12.0333ZM35.0667 3.5H25.7333C25.3778 3.5 25.1333 3.61111 25 3.83333C24.8667 4.05555 24.8667 4.3 25 4.56667C25.1333 4.83333 25.3778 4.96667 25.7333 4.96667H35.0667C35.4222 4.96667 35.6667 4.83333 35.8 4.56667C35.9333 4.3 35.9333 4.05555 35.8 3.83333C35.6667 3.61111 35.4222 3.5 35.0667 3.5ZM35.0667 6.56667H25.7333C25.3778 6.56667 25.1333 6.7 25 6.96667C24.8667 7.23333 24.8667 7.5 25 7.76666C25.1333 8.03333 25.3778 8.16667 25.7333 8.16667H35.0667C35.4222 8.16667 35.6667 8.03333 35.8 7.76666C35.9333 7.5 35.9333 7.23333 35.8 6.96667C35.6667 6.7 35.4222 6.56667 35.0667 6.56667ZM30.4 9.63333H25.7333C25.3778 9.72222 25.1333 9.87778 25 10.1C24.8667 10.3222 24.8667 10.5667 25 10.8333C25.1333 11.1 25.3778 11.2333 25.7333 11.2333H30.4C30.7556 11.2333 31 11.1 31.1333 10.8333C31.2667 10.5667 31.2667 10.3222 31.1333 10.1C31 9.87778 30.7556 9.72222 30.4 9.63333Z" fill="white"/>
</svg>
