<svg width="36" height="41" viewBox="0 0 36 41" fill="none" xmlns="http://www.w3.org/2000/svg">
<path d="M17.8567 29.0333C17.6789 29.0333 17.5011 29.1222 17.3233 29.3C17.1455 29.4778 17.0567 29.6778 17.0567 29.9C17.0567 30.1222 17.1455 30.3 17.3233 30.4333C17.5011 30.5667 17.6789 30.6333 17.8567 30.6333C18.0344 30.6333 18.2122 30.5667 18.39 30.4333C18.5678 30.3 18.6567 30.1222 18.6567 29.9C18.6567 29.6778 18.5678 29.4778 18.39 29.3C18.2122 29.1222 18.0344 29.0333 17.8567 29.0333ZM31.8567 6.36666H15.99L11.0567 1.43333C10.4344 0.811108 9.7011 0.499996 8.85666 0.499996C8.01221 0.499996 7.3011 0.788887 6.72332 1.36666C6.14555 1.94444 5.85666 2.65555 5.85666 3.5C5.85666 4.34444 6.12332 5.07777 6.65666 5.7L7.45666 6.36666H3.85666C2.78999 6.36666 1.87888 6.76667 1.12332 7.56667C0.367768 8.36666 -0.0100098 9.3 -0.0100098 10.3667V15.4333C-0.0100098 15.7 0.0566569 15.9 0.18999 16.0333C0.323324 16.1667 0.501101 16.2333 0.723324 16.2333C0.945546 16.2333 1.14555 16.1667 1.32332 16.0333C1.5011 15.9 1.58999 15.7 1.58999 15.4333V10.3667C1.58999 9.65555 1.81221 9.07778 2.25666 8.63333C2.7011 8.18889 3.23443 7.96666 3.85666 7.96666H9.05666L18.9233 17.8333L18.79 18.6333C18.79 20.0556 19.2789 21.2556 20.2567 22.2333C21.1455 23.1222 22.1011 23.7444 23.1233 24.1C24.1455 24.4556 25.4122 24.6333 26.9233 24.6333C27.6344 24.6333 28.39 24.5889 29.19 24.5C29.5455 24.5 29.7678 24.3444 29.8567 24.0333C29.9455 23.7222 29.9011 23.4333 29.7233 23.1667C29.2789 22.7222 29.0122 22.2333 28.9233 21.7C28.8344 21.3444 28.8344 20.7222 28.9233 19.8333C29.0122 18.8556 29.0122 18.0556 28.9233 17.4333C28.7455 16.5444 28.3233 15.7667 27.6567 15.1C26.99 14.4333 26.2789 13.9667 25.5233 13.7C24.7678 13.4333 23.9455 13.3889 23.0567 13.5667L17.59 7.96666H31.8567C32.4789 7.96666 33.0344 8.18889 33.5233 8.63333C34.0122 9.07778 34.2567 9.65555 34.2567 10.3667V26.3667H1.58999V22.5C1.58999 22.3222 1.5011 22.1444 1.32332 21.9667C1.14555 21.7889 0.945546 21.7 0.723324 21.7C0.501101 21.7 0.323324 21.7889 0.18999 21.9667C0.0566569 22.1444 -0.0100098 22.3222 -0.0100098 22.5V29.4333C-0.0100098 30.5 0.367768 31.4111 1.12332 32.1667C1.87888 32.9222 2.78999 33.3 3.85666 33.3H13.99V35.8333C12.9233 35.8333 12.0122 36.2111 11.2567 36.9667C10.5011 37.7222 10.1233 38.6333 10.1233 39.7C10.1233 39.9667 10.19 40.1667 10.3233 40.3C10.4567 40.4333 10.6567 40.5 10.9233 40.5H24.79C25.0567 40.5 25.2567 40.4333 25.39 40.3C25.5233 40.1667 25.59 39.9667 25.59 39.7C25.59 38.6333 25.2122 37.7222 24.4567 36.9667C23.7011 36.2111 22.79 35.8333 21.7233 35.8333V33.3H31.8567C32.9233 33.3 33.8344 32.9222 34.59 32.1667C35.3455 31.4111 35.7233 30.5 35.7233 29.4333V10.3667C35.7233 9.3 35.3455 8.36666 34.59 7.56667C33.8344 6.76667 32.9233 6.36666 31.8567 6.36666ZM7.85666 2.5C8.12332 2.23333 8.45666 2.1 8.85666 2.1C9.25666 2.1 9.58999 2.23333 9.85666 2.5L17.7233 10.3667L15.7233 12.5L7.85666 4.63333C7.5011 4.27777 7.32332 3.9 7.32332 3.5C7.32332 3.1 7.5011 2.76667 7.85666 2.5ZM21.4567 21.1667C21.7233 20.7222 22.0789 20.3444 22.5233 20.0333C22.9678 19.7222 23.5011 19.5222 24.1233 19.4333C25.4567 19.3444 26.5678 18.8111 27.4567 17.8333C27.4567 18.1889 27.4122 18.8111 27.3233 19.7C27.3233 20.4111 27.3233 20.9889 27.3233 21.4333C27.3233 22.0556 27.4567 22.6333 27.7233 23.1667C26.3011 23.1667 25.0789 23.0111 24.0567 22.7C23.0344 22.3889 22.1678 21.8778 21.4567 21.1667ZM26.5233 16.1C26.5233 16.1 26.5678 16.1444 26.6567 16.2333C26.39 16.6778 26.0122 17.0556 25.5233 17.3667C25.0344 17.6778 24.5233 17.8778 23.99 17.9667C22.5678 17.9667 21.4122 18.5444 20.5233 19.7C20.4344 19.3444 20.39 18.9889 20.39 18.6333C20.39 17.6556 20.7455 16.8111 21.4567 16.1C22.1678 15.3889 23.0122 15.0333 23.99 15.0333C24.9678 15.0333 25.8122 15.3889 26.5233 16.1ZM20.2567 14.9L19.19 15.9667L16.79 13.5667L18.9233 11.4333L21.3233 13.9667L20.2567 14.9ZM23.8567 38.9H11.8567C12.0344 38.4556 12.3233 38.1 12.7233 37.8333C13.1233 37.5667 13.5455 37.4333 13.99 37.4333H21.7233C22.1678 37.4333 22.6122 37.5667 23.0567 37.8333C23.5011 38.1 23.7678 38.4556 23.8567 38.9ZM20.2567 35.8333H15.4567V33.3H20.2567V35.8333ZM31.8567 31.7H3.85666C3.23443 31.7 2.7011 31.4778 2.25666 31.0333C1.81221 30.5889 1.58999 30.0556 1.58999 29.4333V27.9667H34.2567V29.4333C34.2567 30.0556 34.0122 30.5889 33.5233 31.0333C33.0344 31.4778 32.4789 31.7 31.8567 31.7ZM0.78999 19.8333C0.967768 19.8333 1.14555 19.7444 1.32332 19.5667C1.5011 19.3889 1.58999 19.1889 1.58999 18.9667C1.58999 18.7444 1.5011 18.5667 1.32332 18.4333C1.14555 18.3 0.945546 18.2333 0.723324 18.2333C0.501101 18.2333 0.323324 18.3 0.18999 18.4333C0.0566569 18.5667 -0.0100098 18.7444 -0.0100098 18.9667C-0.0100098 19.1889 0.0566569 19.3889 0.18999 19.5667C0.323324 19.7444 0.523324 19.8333 0.78999 19.8333Z" fill="white"/>
</svg>
